<svg version="1.1" id="Layer_1" xmlns="http://www.w3.org/2000/svg" xmlns:xlink="http://www.w3.org/1999/xlink" x="0px" y="0px"
	 width="100%" viewBox="0 0 1296 830" enable-background="new 0 0 1296 830" xml:space="preserve">

<path fill="#C4943A" opacity="1.000000" stroke="none" 
	d="
M174.221893,524.573486 
	C174.221893,524.573486 174.228836,524.228394 174.131683,523.806763 
	C173.702728,522.914856 173.370941,522.444458 173.039154,521.974121 
	C173.030975,521.797241 173.022797,521.620361 172.922928,520.946716 
	C172.604630,520.198059 172.378021,519.946106 172.151428,519.694214 
	C172.151428,519.694214 172.120468,519.290771 172.002686,518.869995 
	C171.648117,518.198303 171.411316,517.947449 171.174500,517.696533 
	C171.174500,517.696533 171.179169,517.299683 171.104797,516.828552 
	C170.720261,515.848755 170.410095,515.340088 170.099930,514.831421 
	C170.099930,514.831421 170.057510,514.376648 169.957825,513.860840 
	C169.281799,512.153870 168.705475,510.962708 168.129150,509.771515 
	C168.129135,509.771515 168.108948,509.332458 168.032196,508.864807 
	C167.647644,507.928894 167.339844,507.460693 167.032043,506.992462 
	C167.034668,506.813995 167.037292,506.635559 166.956772,505.941772 
	C166.654495,505.145935 166.435364,504.865540 166.216217,504.585144 
	C166.216217,504.585144 166.251312,504.243317 166.165924,503.755066 
	C165.449097,501.734070 164.817657,500.201355 164.186203,498.668640 
	C164.186203,498.668640 164.209763,498.287689 164.135956,497.825989 
	C163.751816,496.847229 163.441498,496.330200 163.131195,495.813141 
	C163.131195,495.813141 163.146149,495.366241 163.095291,494.849304 
	C162.766327,493.767365 162.488220,493.202362 162.210114,492.637329 
	C162.210129,492.637329 162.237900,492.270782 162.162292,491.812317 
	C161.782150,490.822052 161.477631,490.290283 161.173096,489.758514 
	C161.173096,489.758514 161.198853,489.335083 161.122070,488.852692 
	C160.835266,488.040527 160.625229,487.710754 160.415176,487.380981 
	C160.314026,486.772278 160.212860,486.163544 160.001190,484.930664 
	C159.327179,482.743988 158.763672,481.181427 158.200165,479.618896 
	C158.200165,479.618896 158.257050,479.271576 158.187469,478.756622 
	C157.481781,476.364685 156.845703,474.487701 156.209625,472.610718 
	C156.176971,472.240051 156.144333,471.869385 156.034454,470.910583 
	C155.575119,469.228851 155.193054,468.135254 154.810989,467.041656 
	C154.578476,465.894318 154.345963,464.747009 154.014221,462.891449 
	C152.983475,457.788330 152.139526,453.372467 151.095139,449.004547 
	C150.107712,444.874908 151.210220,443.054626 155.744995,441.893188 
	C175.558212,436.818817 195.503265,432.019531 214.898071,425.602051 
	C252.793289,413.063049 290.308044,399.379242 328.062012,386.407166 
	C380.331543,368.447571 433.172058,352.451782 487.535614,342.041168 
	C500.908020,339.480347 514.441711,336.434418 527.950012,336.177795 
	C559.224915,335.583679 587.467224,345.602966 612.634705,364.288605 
	C615.735657,366.590881 615.984741,368.591278 613.471130,371.096008 
	C606.191040,378.350342 599.522644,386.448669 591.368835,392.552094 
	C568.589905,409.603088 542.279785,419.768951 515.634583,428.999603 
	C506.080597,432.309387 496.379791,435.195312 485.519409,438.666779 
	C488.416382,439.751862 490.190216,440.512115 492.022003,441.088196 
	C528.618042,452.597015 566.057190,455.776947 604.094238,451.815308 
	C635.960083,448.496460 666.729370,440.564514 695.374573,426.090240 
	C729.037537,409.080505 760.270691,388.139465 790.223206,365.202301 
	C816.185730,345.320648 845.692810,335.341492 878.553772,335.990509 
	C888.479309,336.186554 888.476624,336.322632 890.981079,344.981689 
	C890.967712,345.749237 890.954407,346.516815 890.948853,348.020203 
	C891.072937,349.484955 891.189270,350.213898 891.305603,350.942810 
	C891.302734,352.022369 891.299805,353.101898 891.287964,354.991119 
	C891.490906,363.600525 891.814331,371.399323 891.881409,379.200287 
	C891.941162,386.148804 891.717224,393.099701 891.618530,400.049561 
	C891.462769,401.437988 891.307007,402.826447 891.084412,405.009735 
	C891.037903,406.860626 891.058167,407.916656 891.078430,408.972687 
	C891.000793,409.424835 890.923218,409.876953 890.667358,410.979797 
	C890.172791,415.101593 889.856384,418.572632 889.540039,422.043701 
	C889.424194,422.479950 889.308350,422.916229 889.132080,423.920959 
	C889.114929,424.653381 889.158142,424.817322 889.201416,424.981262 
	C889.081726,425.735992 888.962036,426.490753 888.640625,427.922028 
	C887.663391,434.060913 886.887878,439.523285 886.112305,444.985626 
	C885.950378,445.610718 885.788391,446.235779 885.437256,447.489075 
	C884.872681,450.405975 884.497375,452.694641 884.122070,454.983337 
	C883.939880,455.592834 883.757690,456.202332 883.386597,457.430603 
	C882.140625,462.696960 881.083618,467.344574 880.026611,471.992188 
	C879.890198,472.311066 879.753784,472.629944 879.413696,473.487183 
	C878.833435,475.679871 878.456909,477.334198 878.080322,478.988495 
	C877.699707,480.092560 877.319031,481.196655 876.700562,482.871643 
	C876.305908,484.293457 876.149170,485.144379 875.992493,485.995300 
	C875.992493,485.995300 875.776001,486.292480 875.554871,486.695526 
	C875.250183,487.723572 875.166687,488.348541 875.083130,488.973541 
	C875.083130,488.973541 874.875488,489.398315 874.647583,489.820984 
	C874.322571,490.821228 874.225464,491.398804 874.128418,491.976379 
	C873.978577,492.298767 873.828796,492.621124 873.481079,493.402527 
	C873.244202,494.231628 873.205200,494.601715 873.166138,494.971771 
	C873.092712,495.125580 873.019226,495.279388 872.686890,495.889343 
	C872.073120,497.573517 871.718323,498.801544 871.363525,500.029541 
	C871.211792,500.431030 871.060120,500.832520 870.655884,501.736023 
	C870.285583,502.819397 870.167908,503.400757 870.050232,503.982147 
	C870.050232,503.982147 869.805420,504.283936 869.562561,504.693787 
	C869.224854,505.729279 869.130066,506.354919 869.035278,506.980591 
	C869.035278,506.980591 868.979614,507.008392 868.734985,507.233032 
	C868.283142,508.289154 868.075867,509.120636 867.868652,509.952087 
	C855.990173,539.005920 841.701294,566.727722 823.368469,592.325439 
	C783.274780,648.307373 732.040588,690.658630 669.173523,718.793213 
	C628.661560,736.923462 586.225586,747.369995 541.888855,750.171509 
	C495.658478,753.092712 450.521027,747.480774 406.334686,733.666199 
	C340.839752,713.189575 285.563202,676.855530 239.676132,626.101501 
	C213.583359,597.241272 192.493210,565.020020 176.410309,528.866089 
	C175.808746,527.823181 175.461029,527.334351 175.113312,526.845459 
	C175.113297,526.845459 175.097198,526.377441 175.002335,525.896790 
	C174.678940,525.135254 174.450409,524.854370 174.221893,524.573486 
z"/>
<path fill="#C4943A" opacity="1.000000" stroke="none" 
	d="
M145.049316,409.011841 
	C145.062988,408.246338 145.076675,407.480835 145.090912,405.938232 
	C144.955109,403.796631 144.818756,402.432159 144.682404,401.067688 
	C144.706375,400.301270 144.730362,399.534821 144.766998,397.964386 
	C144.579147,389.708618 144.278961,382.257782 144.209671,374.804810 
	C144.154419,368.860596 144.380646,362.913788 144.481934,356.968109 
	C144.603256,355.892395 144.724579,354.816650 144.906860,352.964417 
	C144.939606,351.136749 144.911407,350.085571 144.883209,349.034393 
	C144.964279,348.269440 145.045334,347.504486 145.296478,346.033997 
	C147.253372,331.897522 149.040176,318.466644 150.826981,305.035736 
	C150.933884,304.587280 151.040771,304.138855 151.375793,303.077820 
	C153.756104,293.311066 155.908310,284.156891 158.060501,275.002686 
	C158.060501,275.002686 158.270874,274.732025 158.495407,274.283997 
	C159.163040,271.894562 159.606155,269.953094 160.049271,268.011658 
	C160.372696,267.216644 160.696121,266.421600 161.256271,265.088104 
	C161.663712,263.704315 161.834412,262.859009 162.005127,262.013702 
	C162.157150,261.707703 162.309189,261.401672 162.665466,260.580750 
	C163.232819,258.716797 163.595917,257.367798 163.959015,256.018768 
	C163.959015,256.018768 164.197510,255.705627 164.452148,255.261703 
	C165.157166,253.216705 165.607544,251.615646 166.057938,250.014572 
	C166.394135,249.236481 166.730331,248.458389 167.307159,247.191971 
	C167.668060,246.143707 167.788345,245.583786 167.908630,245.023849 
	C167.908630,245.023849 168.163666,244.703537 168.418457,244.293671 
	C168.781433,243.266937 168.889633,242.650085 168.997833,242.033218 
	C168.997833,242.033218 169.028503,242.010544 169.263809,241.831787 
	C169.616501,241.112656 169.733887,240.572296 169.851273,240.031937 
	C169.851273,240.031937 170.114166,239.696213 170.352661,239.352066 
	C170.643326,238.683105 170.695496,238.358276 170.747650,238.033463 
	C170.830902,237.867966 170.914154,237.702469 171.254822,237.101288 
	C171.641190,236.118362 171.770126,235.571121 171.899063,235.023895 
	C171.899063,235.023895 172.159470,234.737350 172.395020,234.394409 
	C172.687592,233.710571 172.744629,233.369690 172.801666,233.028793 
	C172.884857,232.881866 172.968048,232.734924 173.316742,232.166077 
	C173.741928,231.173233 173.901611,230.602264 174.061279,230.031311 
	C174.364166,229.523407 174.667053,229.015518 175.211075,228.052246 
	C175.583817,227.073410 175.715408,226.549942 175.847000,226.026489 
	C185.536667,208.396164 194.184052,190.089157 205.109421,173.261078 
	C239.301620,120.595741 284.355804,79.327179 339.303925,48.855656 
	C370.240265,31.699886 402.978180,19.266039 437.452545,11.579303 
	C476.265686,2.925154 515.494568,0.788554 555.130310,4.643037 
	C593.412964,8.365927 630.247070,17.630411 665.354919,33.128170 
	C746.718872,69.044975 808.390991,126.435013 850.064148,205.018921 
	C857.142639,218.366898 862.570129,232.590393 868.925293,247.001221 
	C869.309387,247.887772 869.528564,248.182495 869.747803,248.477234 
	C869.803650,248.831833 869.859436,249.186417 870.010742,250.050140 
	C870.402588,251.033539 870.698975,251.507843 870.995300,251.982147 
	C871.202454,252.822037 871.409668,253.661926 871.786377,255.062378 
	C872.271484,256.115173 872.587036,256.607452 872.902588,257.099731 
	C872.902588,257.099731 872.901855,257.594238 872.960693,258.172028 
	C873.702698,260.486633 874.385803,262.223419 875.068970,263.960205 
	C875.240967,264.799591 875.412964,265.639008 875.722473,267.083282 
	C876.208557,268.500732 876.557190,269.313324 876.905884,270.125916 
	C876.905884,270.125885 876.871033,270.594391 876.934570,271.104431 
	C877.201233,271.945465 877.404297,272.276428 877.607422,272.607422 
	C877.624756,272.935608 877.642212,273.263763 877.768311,274.222565 
	C876.607849,275.576416 875.274719,277.011200 874.080078,276.903900 
	C867.789124,276.338715 861.535522,275.365082 855.264526,274.568207 
	C828.235901,271.133575 801.201294,269.802307 774.244568,275.068024 
	C752.283081,279.357971 733.566772,289.310608 719.395447,307.081757 
	C710.387817,318.377594 705.297180,331.355194 702.357788,346.712158 
	C701.604187,344.454742 701.284424,343.442841 700.929810,342.443268 
	C698.545471,335.722137 696.889404,328.622437 693.639648,322.348724 
	C677.785645,291.741699 651.340027,277.085205 617.986450,273.050995 
	C592.304749,269.944702 566.772156,271.687927 541.344604,275.349030 
	C504.137115,280.706177 468.200806,291.074982 433.021362,304.119232 
	C376.413330,325.108917 322.797119,352.566132 269.278961,380.217529 
	C236.145432,397.336731 203.068787,414.577026 167.412994,426.086121 
	C161.340668,428.046173 155.221451,429.860992 148.880157,431.818146 
	C148.038696,428.168945 147.446732,425.601776 146.854767,423.034576 
	C146.795746,421.953033 146.736725,420.871490 146.642639,419.043732 
	C146.088150,415.202301 145.568726,412.107056 145.049316,409.011841 
z"/>
<path fill="#F0ECE3" opacity="1.000000" stroke="none" 
	d="
M146.600220,423.310242 
	C147.446732,425.601776 148.038696,428.168945 148.880157,431.818146 
	C155.221451,429.860992 161.340668,428.046173 167.412994,426.086121 
	C203.068787,414.577026 236.145432,397.336731 269.278961,380.217529 
	C322.797119,352.566132 376.413330,325.108917 433.021362,304.119232 
	C468.200806,291.074982 504.137115,280.706177 541.344604,275.349030 
	C566.772156,271.687927 592.304749,269.944702 617.986450,273.050995 
	C651.340027,277.085205 677.785645,291.741699 693.639648,322.348724 
	C696.889404,328.622437 698.545471,335.722137 700.929810,342.443268 
	C701.284424,343.442841 701.604187,344.454742 702.357788,346.712158 
	C705.297180,331.355194 710.387817,318.377594 719.395447,307.081757 
	C733.566772,289.310608 752.283081,279.357971 774.244568,275.068024 
	C801.201294,269.802307 828.235901,271.133575 855.264526,274.568207 
	C861.535522,275.365082 867.789124,276.338715 874.080078,276.903900 
	C875.274719,277.011200 876.607849,275.576416 877.915466,274.428467 
	C878.973572,277.769135 881.823853,278.466248 885.286926,279.142059 
	C913.999390,284.745178 941.759460,293.621277 969.254700,303.517700 
	C1015.353271,320.110016 1059.377930,341.268951 1102.920044,363.508514 
	C1128.682251,376.666809 1154.152710,390.399750 1179.989502,403.407532 
	C1214.456787,420.760406 1249.794434,436.113434 1286.642334,447.791412 
	C1288.151123,448.269562 1289.628418,448.846558 1290.899902,450.215057 
	C1283.663818,448.665802 1276.425415,447.127197 1269.192017,445.565582 
	C1224.536133,435.924805 1180.936279,422.605072 1137.762695,407.806213 
	C1114.686768,399.896332 1091.783813,391.438599 1068.518188,384.134705 
	C1035.130615,373.653168 1001.647644,363.396027 967.890076,354.200653 
	C944.608032,347.858765 920.798584,343.448120 897.203918,338.269653 
	C895.368652,337.866882 893.368225,338.216675 891.548950,338.216675 
	C891.548950,340.666931 891.548950,342.587982 891.265015,344.745361 
	C888.476624,336.322632 888.479309,336.186554 878.553772,335.990509 
	C845.692810,335.341492 816.185730,345.320648 790.223206,365.202301 
	C760.270691,388.139465 729.037537,409.080505 695.374573,426.090240 
	C666.729370,440.564514 635.960083,448.496460 604.094238,451.815308 
	C566.057190,455.776947 528.618042,452.597015 492.022003,441.088196 
	C490.190216,440.512115 488.416382,439.751862 485.519409,438.666779 
	C496.379791,435.195312 506.080597,432.309387 515.634583,428.999603 
	C542.279785,419.768951 568.589905,409.603088 591.368835,392.552094 
	C599.522644,386.448669 606.191040,378.350342 613.471130,371.096008 
	C615.984741,368.591278 615.735657,366.590881 612.634705,364.288605 
	C587.467224,345.602966 559.224915,335.583679 527.950012,336.177795 
	C514.441711,336.434418 500.908020,339.480347 487.535614,342.041168 
	C433.172058,352.451782 380.331543,368.447571 328.062012,386.407166 
	C290.308044,399.379242 252.793289,413.063049 214.898071,425.602051 
	C195.503265,432.019531 175.558212,436.818817 155.744995,441.893188 
	C151.210220,443.054626 150.107712,444.874908 151.095139,449.004547 
	C152.139526,453.372467 152.983475,457.788330 153.847473,462.576508 
	C152.520538,458.625824 150.892990,454.348511 150.091812,449.921631 
	C149.010895,443.949097 148.952820,443.924347 142.851059,444.795593 
	C129.444733,446.709869 116.032288,448.801239 102.547104,449.878723 
	C89.986885,450.882263 77.329567,450.680328 64.713921,450.961487 
	C63.689083,450.984314 62.656055,450.640045 61.619198,449.601990 
	C65.068565,449.085907 68.536438,448.670044 71.964241,448.037140 
	C91.127289,444.498993 110.290665,440.960693 129.429764,437.296265 
	C133.813889,436.456879 138.083817,435.037292 142.441803,434.039948 
	C146.140915,433.193390 148.081055,431.604919 146.372391,427.474518 
	C145.913223,426.364594 146.330658,424.892029 146.600220,423.310242 
z"/>
<path fill="#F0ECE3" opacity="1.000000" stroke="none" 
	d="
M891.947449,399.877594 
	C891.717224,393.099701 891.941162,386.148804 891.881409,379.200287 
	C891.814331,371.399323 891.490906,363.600525 891.420044,355.375916 
	C892.039429,355.891235 892.928467,356.828857 892.934448,357.772034 
	C893.019409,371.156433 892.993652,384.541626 892.949158,397.926483 
	C892.947144,398.520264 892.510498,399.112610 891.947449,399.877594 
z"/>
<path fill="#F0ECE3" opacity="1.000000" stroke="none" 
	d="
M150.558823,305.272339 
	C149.040176,318.466644 147.253372,331.897522 145.235260,345.652100 
	C144.995895,342.982391 144.669388,339.949097 145.038818,337.003052 
	C146.203079,327.718689 147.598206,318.462494 148.987900,309.208008 
	C149.178558,307.938416 149.844681,306.740234 150.558823,305.272339 
z"/>
<path fill="#F0ECE3" opacity="1.000000" stroke="none" 
	d="
M144.136078,357.118347 
	C144.380646,362.913788 144.154419,368.860596 144.209671,374.804810 
	C144.278961,382.257782 144.579147,389.708618 144.648666,397.596558 
	C144.013931,397.113312 143.078812,396.197174 143.071808,395.273987 
	C142.980072,383.189026 143.008881,371.103088 143.058426,359.017548 
	C143.060822,358.433563 143.535477,357.851532 144.136078,357.118347 
z"/>
<path fill="#F0ECE3" opacity="1.000000" stroke="none" 
	d="
M157.754761,275.204102 
	C155.908310,284.156891 153.756104,293.311066 151.346313,302.731140 
	C151.389404,300.251495 151.384232,297.429138 152.051376,294.775787 
	C153.685303,288.277466 155.629593,281.857178 157.754761,275.204102 
z"/>
<path fill="#F0ECE3" opacity="1.000000" stroke="none" 
	d="
M886.438965,444.795380 
	C886.887878,439.523285 887.663391,434.060913 888.686035,428.303345 
	C889.227905,429.022125 889.925537,430.112976 889.749268,431.037170 
	C888.882019,435.584106 887.782837,440.086823 886.438965,444.795380 
z"/>
<path fill="#F0ECE3" opacity="1.000000" stroke="none" 
	d="
M880.356323,471.820404 
	C881.083618,467.344574 882.140625,462.696960 883.447998,457.745789 
	C882.694275,462.177673 881.690186,466.913147 880.356323,471.820404 
z"/>
<path fill="#F0ECE3" opacity="1.000000" stroke="none" 
	d="
M889.867920,421.900696 
	C889.856384,418.572632 890.172791,415.101593 890.725037,411.321167 
	C890.705933,414.593750 890.450867,418.175751 889.867920,421.900696 
z"/>
<path fill="#F0ECE3" opacity="1.000000" stroke="none" 
	d="
M144.756989,409.252960 
	C145.568726,412.107056 146.088150,415.202301 146.470947,418.673676 
	C145.711121,415.864594 145.087891,412.679321 144.756989,409.252960 
z"/>
<path fill="#F0ECE3" opacity="1.000000" stroke="none" 
	d="
M875.306763,263.759827 
	C874.385803,262.223419 873.702698,260.486633 873.076599,258.390503 
	C873.937256,259.873932 874.740906,261.716705 875.306763,263.759827 
z"/>
<path fill="#F0ECE3" opacity="1.000000" stroke="none" 
	d="
M884.451538,454.789795 
	C884.497375,452.694641 884.872681,450.405975 885.495239,447.809692 
	C885.421997,449.866852 885.101562,452.231537 884.451538,454.789795 
z"/>
<path fill="#F0ECE3" opacity="1.000000" stroke="none" 
	d="
M159.700806,268.178680 
	C159.606155,269.953094 159.163040,271.894562 158.464081,274.115479 
	C158.589600,272.378571 158.970963,270.362122 159.700806,268.178680 
z"/>
<path fill="#F0ECE3" opacity="1.000000" stroke="none" 
	d="
M156.137207,473.028748 
	C156.845703,474.487701 157.481781,476.364685 158.080704,478.616760 
	C157.383942,477.143494 156.724350,475.295105 156.137207,473.028748 
z"/>
<path fill="#F0ECE3" opacity="1.000000" stroke="none" 
	d="
M164.120392,499.063049 
	C164.817657,500.201355 165.449097,501.734070 166.052124,503.626343 
	C165.367310,502.476440 164.710953,500.966980 164.120392,499.063049 
z"/>
<path fill="#F0ECE3" opacity="1.000000" stroke="none" 
	d="
M158.131866,480.033569 
	C158.763672,481.181427 159.327179,482.743988 159.842255,484.660583 
	C159.217072,483.492493 158.640320,481.970398 158.131866,480.033569 
z"/>
<path fill="#F0ECE3" opacity="1.000000" stroke="none" 
	d="
M878.410950,478.804352 
	C878.456909,477.334198 878.833435,475.679871 879.459473,473.746521 
	C879.386536,475.185028 879.064026,476.902618 878.410950,478.804352 
z"/>
<path fill="#F0ECE3" opacity="1.000000" stroke="none" 
	d="
M165.715057,250.172577 
	C165.607544,251.615646 165.157166,253.216705 164.444305,255.065048 
	C164.578613,253.651733 164.975403,251.991165 165.715057,250.172577 
z"/>
<path fill="#F0ECE3" opacity="1.000000" stroke="none" 
	d="
M154.580597,467.275818 
	C155.193054,468.135254 155.575119,469.228851 155.888885,470.667938 
	C155.330475,469.845612 154.840347,468.677795 154.580597,467.275818 
z"/>
<path fill="#F0ECE3" opacity="1.000000" stroke="none" 
	d="
M163.625031,256.190002 
	C163.595917,257.367798 163.232819,258.716797 162.622284,260.324493 
	C162.680252,259.175842 162.985657,257.768555 163.625031,256.190002 
z"/>
<path fill="#F0ECE3" opacity="1.000000" stroke="none" 
	d="
M168.078552,510.153076 
	C168.705475,510.962708 169.281799,512.153870 169.819977,513.678772 
	C169.197220,512.853210 168.612595,511.693939 168.078552,510.153076 
z"/>
<path fill="#F0ECE3" opacity="1.000000" stroke="none" 
	d="
M871.694092,499.932129 
	C871.718323,498.801544 872.073120,497.573517 872.685181,496.145081 
	C872.636475,497.241333 872.330566,498.538025 871.694092,499.932129 
z"/>
<path fill="#F0ECE3" opacity="1.000000" stroke="none" 
	d="
M144.468872,401.325378 
	C144.818756,402.432159 144.955109,403.796631 144.997864,405.565002 
	C144.687958,404.506927 144.471649,403.045013 144.468872,401.325378 
z"/>
<path fill="#F0ECE3" opacity="1.000000" stroke="none" 
	d="
M161.725861,262.128174 
	C161.834412,262.859009 161.663712,263.704315 161.241241,264.761169 
	C161.141846,264.062714 161.294220,263.152679 161.725861,262.128174 
z"/>
<path fill="#F0ECE3" opacity="1.000000" stroke="none" 
	d="
M876.272461,485.875610 
	C876.149170,485.144379 876.305908,484.293457 876.713013,483.226929 
	C876.826416,483.926178 876.689392,484.841064 876.272461,485.875610 
z"/>
<path fill="#F0ECE3" opacity="1.000000" stroke="none" 
	d="
M871.223572,251.832169 
	C870.698975,251.507843 870.402588,251.033539 870.168457,250.273102 
	C870.637695,250.552048 871.044739,251.117111 871.223572,251.832169 
z"/>
<path fill="#F0ECE3" opacity="1.000000" stroke="none" 
	d="
M891.323853,408.771606 
	C891.058167,407.916656 891.037903,406.860626 891.150269,405.428528 
	C891.378357,406.225189 891.473816,407.397858 891.323853,408.771606 
z"/>
<path fill="#F0ECE3" opacity="1.000000" stroke="none" 
	d="
M144.643951,349.238403 
	C144.911407,350.085571 144.939606,351.136749 144.833481,352.561798 
	C144.601013,351.771240 144.502853,350.606812 144.643951,349.238403 
z"/>
<path fill="#F0ECE3" opacity="1.000000" stroke="none" 
	d="
M891.505615,350.739532 
	C891.189270,350.213898 891.072937,349.484955 891.045776,348.393494 
	C891.325073,348.866058 891.515381,349.701172 891.505615,350.739532 
z"/>
<path fill="#F0ECE3" opacity="1.000000" stroke="none" 
	d="
M868.164429,509.790100 
	C868.075867,509.120636 868.283142,508.289154 868.748718,507.260956 
	C868.824768,507.918823 868.642517,508.773468 868.164429,509.790100 
z"/>
<path fill="#F0ECE3" opacity="1.000000" stroke="none" 
	d="
M876.956055,269.774170 
	C876.557190,269.313324 876.208557,268.500732 875.913574,267.348145 
	C876.313599,267.812866 876.659912,268.617615 876.956055,269.774170 
z"/>
<path fill="#F0ECE3" opacity="1.000000" stroke="none" 
	d="
M869.297668,506.781036 
	C869.130066,506.354919 869.224854,505.729279 869.564697,504.888062 
	C869.726501,505.308868 869.643250,505.945160 869.297668,506.781036 
z"/>
<path fill="#F0ECE3" opacity="1.000000" stroke="none" 
	d="
M870.304626,503.809021 
	C870.167908,503.400757 870.285583,502.819397 870.652344,502.060242 
	C870.787231,502.466980 870.673157,503.051453 870.304626,503.809021 
z"/>
<path fill="#F0ECE3" opacity="1.000000" stroke="none" 
	d="
M167.010712,507.281952 
	C167.339844,507.460693 167.647644,507.928894 167.904449,508.685974 
	C167.565445,508.507019 167.277405,508.039215 167.010712,507.281952 
z"/>
<path fill="#F0ECE3" opacity="1.000000" stroke="none" 
	d="
M163.088104,496.130615 
	C163.441498,496.330200 163.751816,496.847229 164.019058,497.675110 
	C163.665665,497.473358 163.355347,496.960724 163.088104,496.130615 
z"/>
<path fill="#F0ECE3" opacity="1.000000" stroke="none" 
	d="
M162.147308,492.967529 
	C162.488220,493.202362 162.766327,493.767365 162.988297,494.652985 
	C162.649612,494.414948 162.367050,493.856354 162.147308,492.967529 
z"/>
<path fill="#F0ECE3" opacity="1.000000" stroke="none" 
	d="
M170.067825,515.144409 
	C170.410095,515.340088 170.720261,515.848755 170.989899,516.666748 
	C170.644821,516.469788 170.340271,515.963623 170.067825,515.144409 
z"/>
<path fill="#F0ECE3" opacity="1.000000" stroke="none" 
	d="
M173.023605,522.276733 
	C173.370941,522.444458 173.702728,522.914856 174.009918,523.684448 
	C173.659546,523.515625 173.333801,523.047485 173.023605,522.276733 
z"/>
<path fill="#F0ECE3" opacity="1.000000" stroke="none" 
	d="
M175.082611,527.171997 
	C175.461029,527.334351 175.808746,527.823181 176.158844,528.624084 
	C175.791443,528.456909 175.421677,527.977783 175.082611,527.171997 
z"/>
<path fill="#F0ECE3" opacity="1.000000" stroke="none" 
	d="
M874.370056,491.793945 
	C874.225464,491.398804 874.322571,490.821228 874.659302,490.057129 
	C874.803223,490.450928 874.707520,491.031219 874.370056,491.793945 
z"/>
<path fill="#F0ECE3" opacity="1.000000" stroke="none" 
	d="
M161.118713,490.082886 
	C161.477631,490.290283 161.782150,490.822052 162.046509,491.669556 
	C161.692307,491.459290 161.378311,490.933258 161.118713,490.082886 
z"/>
<path fill="#F0ECE3" opacity="1.000000" stroke="none" 
	d="
M875.336548,488.766998 
	C875.166687,488.348541 875.250183,487.723572 875.573608,486.878387 
	C875.738953,487.292297 875.664429,487.926361 875.336548,488.766998 
z"/>
<path fill="#F0ECE3" opacity="1.000000" stroke="none" 
	d="
M872.937988,256.791901 
	C872.587036,256.607452 872.271484,256.115173 871.994324,255.318985 
	C872.346252,255.504730 872.659790,255.994400 872.937988,256.791901 
z"/>
<path fill="#F0ECE3" opacity="1.000000" stroke="none" 
	d="
M167.663803,245.189514 
	C167.788345,245.583786 167.668060,246.143707 167.301468,246.869003 
	C167.176422,246.474640 167.297699,245.914917 167.663803,245.189514 
z"/>
<path fill="#F0ECE3" opacity="1.000000" stroke="none" 
	d="
M168.729279,242.220642 
	C168.889633,242.650085 168.781433,243.266937 168.424561,244.089020 
	C168.270828,243.665527 168.365784,243.036804 168.729279,242.220642 
z"/>
<path fill="#F0ECE3" opacity="1.000000" stroke="none" 
	d="
M169.619339,240.195190 
	C169.733887,240.572296 169.616501,241.112656 169.260269,241.813034 
	C169.143417,241.434845 169.265411,240.896637 169.619339,240.195190 
z"/>
<path fill="#F0ECE3" opacity="1.000000" stroke="none" 
	d="
M171.657867,235.183746 
	C171.770126,235.571121 171.641190,236.118362 171.267853,236.823700 
	C171.154526,236.435745 171.285599,235.889664 171.657867,235.183746 
z"/>
<path fill="#F0ECE3" opacity="1.000000" stroke="none" 
	d="
M173.788712,230.183426 
	C173.901611,230.602264 173.741928,231.173233 173.328766,231.913086 
	C173.222260,231.499832 173.369186,230.917694 173.788712,230.183426 
z"/>
<path fill="#F0ECE3" opacity="1.000000" stroke="none" 
	d="
M175.618713,226.181503 
	C175.715408,226.549942 175.583817,227.073410 175.213196,227.745880 
	C175.112915,227.375443 175.251663,226.855972 175.618713,226.181503 
z"/>
<path fill="#F0ECE3" opacity="1.000000" stroke="none" 
	d="
M889.347412,424.902344 
	C889.158142,424.817322 889.114929,424.653381 889.179932,424.259644 
	C889.644897,424.232422 889.713318,424.496979 889.347412,424.902344 
z"/>
<path fill="#F0ECE3" opacity="1.000000" stroke="none" 
	d="
M172.593445,233.188095 
	C172.744629,233.369690 172.687592,233.710571 172.406158,234.201141 
	C172.249603,234.016342 172.317429,233.681870 172.593445,233.188095 
z"/>
<path fill="#F0ECE3" opacity="1.000000" stroke="none" 
	d="
M166.195068,504.858032 
	C166.435364,504.865540 166.654495,505.145935 166.841660,505.700104 
	C166.597748,505.692871 166.385818,505.411896 166.195068,504.858032 
z"/>
<path fill="#F0ECE3" opacity="1.000000" stroke="none" 
	d="
M170.551849,238.182816 
	C170.695496,238.358276 170.643326,238.683105 170.368530,239.139450 
	C170.068130,238.924881 170.138184,238.611938 170.551849,238.182816 
z"/>
<path fill="#F0ECE3" opacity="1.000000" stroke="none" 
	d="
M873.382874,494.783997 
	C873.205200,494.601715 873.244202,494.231628 873.500854,493.671234 
	C873.678833,493.852661 873.639221,494.224457 873.382874,494.783997 
z"/>
<path fill="#F0ECE3" opacity="1.000000" stroke="none" 
	d="
M869.776245,248.193756 
	C869.528564,248.182495 869.309387,247.887772 869.121521,247.311401 
	C869.370117,247.323257 869.587402,247.616760 869.776245,248.193756 
z"/>
<path fill="#F0ECE3" opacity="1.000000" stroke="none" 
	d="
M171.173203,517.960876 
	C171.411316,517.947449 171.648117,518.198303 171.871643,518.715942 
	C171.629547,518.730164 171.400711,518.477661 171.173203,517.960876 
z"/>
<path fill="#F0ECE3" opacity="1.000000" stroke="none" 
	d="
M172.148560,519.949402 
	C172.378021,519.946106 172.604630,520.198059 172.799606,520.711487 
	C172.560547,520.716858 172.353104,520.460754 172.148560,519.949402 
z"/>
<path fill="#F0ECE3" opacity="1.000000" stroke="none" 
	d="
M877.669373,272.304657 
	C877.404297,272.276428 877.201233,271.945465 877.033936,271.317322 
	C877.290222,271.347412 877.510742,271.674683 877.669373,272.304657 
z"/>
<path fill="#F0ECE3" opacity="1.000000" stroke="none" 
	d="
M174.204788,524.852478 
	C174.450409,524.854370 174.678940,525.135254 174.883362,525.695190 
	C174.635406,525.693298 174.411545,525.412354 174.204788,524.852478 
z"/>
<path fill="#F0ECE3" opacity="1.000000" stroke="none" 
	d="
M160.349991,487.688232 
	C160.625229,487.710754 160.835266,488.040527 161.014389,488.669983 
	C160.750580,488.644928 160.517700,488.320221 160.349991,487.688232 
z"/>
</svg>